<?xml version="1.0" encoding="utf-8"?>
<!-- Generator: Adobe Illustrator 27.6.1, SVG Export Plug-In . SVG Version: 6.00 Build 0)  -->
<svg version="1.1" id="Stanford_School_of_Medicine"
	 xmlns="http://www.w3.org/2000/svg" xmlns:xlink="http://www.w3.org/1999/xlink" x="0px" y="0px" viewBox="0 0 334.8 78.5"
	 style="enable-background:new 0 0 334.8 78.5;" xml:space="preserve">
<style type="text/css">
	.st0{fill:#53565A;}
	.st1{fill:#C7C7C7;}
	.st2{fill:#8C1515;}
	.st3{fill:#FFFFFF;}
</style>
<g>
	<g id="b">
		<path class="st0" d="M179.1,42.5c0.8,0.8,2,1.3,3,1.3c1.3,0,2-0.6,2-1.5c0-1-0.7-1.3-1.8-1.7l-1.6-0.7c-1.1-0.5-2.3-1.4-2.3-3.1
			c0-1.8,1.6-3.3,3.9-3.3c1.3,0,2.7,0.6,3.6,1.5l-1,1.3c-0.7-0.6-1.5-1-2.5-1c-1.1,0-1.8,0.5-1.8,1.4s0.9,1.2,1.8,1.6L184,39
			c1.4,0.6,2.3,1.5,2.3,3.1c0,1.9-1.6,3.4-4.2,3.4c-1.6,0-3.1-0.6-4.2-1.7L179.1,42.5L179.1,42.5z"/>
		<path class="st0" d="M191.8,36.4c1.1,0,2,0.4,2.6,1l-1,1.3c-0.5-0.4-0.9-0.6-1.5-0.6c-1.4,0-2.4,1.2-2.4,2.9s1,2.9,2.3,2.9
			c0.7,0,1.3-0.4,1.8-0.7l0.9,1.3c-0.8,0.7-1.9,1.1-2.9,1.1c-2.4,0-4.2-1.7-4.2-4.6C187.4,38.1,189.5,36.4,191.8,36.4L191.8,36.4z"
			/>
		<path class="st0" d="M195.8,32.8h2V36l-0.1,1.7c0.7-0.7,1.6-1.3,2.8-1.3c1.9,0,2.7,1.3,2.7,3.5v5.5h-2v-5.2c0-1.4-0.4-2-1.4-2
			c-0.8,0-1.3,0.4-2,1.1v6.1h-2V32.8L195.8,32.8z"/>
		<path class="st0" d="M208.9,36.4c2.2,0,4.2,1.7,4.2,4.6c0,2.9-2,4.6-4.2,4.6s-4.1-1.7-4.1-4.6C204.8,38.1,206.8,36.4,208.9,36.4z
			 M208.9,43.9c1.3,0,2.1-1.2,2.1-2.9c0-1.8-0.8-2.9-2.1-2.9s-2,1.2-2,2.9C206.9,42.8,207.7,43.9,208.9,43.9z"/>
		<path class="st0" d="M218.4,36.4c2.2,0,4.2,1.7,4.2,4.6c0,2.9-2,4.6-4.2,4.6s-4.1-1.7-4.1-4.6C214.2,38.1,216.2,36.4,218.4,36.4z
			 M218.4,43.9c1.3,0,2.1-1.2,2.1-2.9c0-1.8-0.8-2.9-2.1-2.9s-2,1.2-2,2.9C216.3,42.8,217.1,43.9,218.4,43.9z"/>
		<path class="st0" d="M224.2,32.8h2v10.4c0,0.5,0.2,0.7,0.4,0.7c0.1,0,0.2,0,0.3,0l0.3,1.5c-0.2,0.1-0.6,0.2-1.1,0.2
			c-1.5,0-2-0.9-2-2.4L224.2,32.8L224.2,32.8z"/>
		<path class="st0" d="M235.3,36.4c2.2,0,4.2,1.7,4.2,4.6c0,2.9-2,4.6-4.2,4.6s-4.1-1.7-4.1-4.6C231.1,38.1,233.1,36.4,235.3,36.4z
			 M235.3,43.9c1.3,0,2.1-1.2,2.1-2.9c0-1.8-0.8-2.9-2.1-2.9s-2,1.2-2,2.9C233.2,42.8,234,43.9,235.3,43.9z"/>
		<path class="st0" d="M245.4,34.5c-0.3-0.1-0.7-0.2-1-0.2c-0.7,0-1.1,0.5-1.1,1.5v0.9h1.7v1.6h-1.7v7.1h-2v-7.1h-1.2v-1.5l1.2-0.1
			v-0.9c0-1.8,0.8-3.1,2.9-3.1c0.6,0,1.2,0.1,1.6,0.3L245.4,34.5L245.4,34.5z"/>
		<path class="st0" d="M250.1,33.8h2.3l2.1,5.7l0.8,2.2h0.1l0.7-2.2l2.1-5.7h2.3v11.6h-1.9v-5.3c0-1.1,0.2-2.6,0.3-3.7h-0.1
			l-0.9,2.6l-2,5.3h-1l-2-5.3l-0.9-2.6h-0.1c0.1,1.1,0.3,2.6,0.3,3.7v5.3h-1.9L250.1,33.8L250.1,33.8z"/>
		<path class="st0" d="M266.3,36.4c2.4,0,3.6,1.7,3.6,4.1c0,0.4,0,0.7-0.1,1h-5.5c0.2,1.6,1.2,2.5,2.6,2.5c0.7,0,1.4-0.2,2-0.6
			l0.7,1.3c-0.8,0.6-1.9,0.9-3,0.9c-2.4,0-4.3-1.7-4.3-4.6C262.2,38.2,264.2,36.4,266.3,36.4L266.3,36.4z M268.1,40.2
			c0-1.4-0.6-2.2-1.8-2.2c-1,0-1.9,0.8-2.1,2.2H268.1L268.1,40.2z"/>
		<path class="st0" d="M274.9,36.4c1,0,1.6,0.4,2.3,1l-0.1-1.4v-3.2h2v12.5h-1.7l-0.1-0.9h-0.1c-0.6,0.6-1.5,1.2-2.5,1.2
			c-2.2,0-3.6-1.7-3.6-4.6C271.2,38.2,273,36.4,274.9,36.4L274.9,36.4z M275.3,43.9c0.7,0,1.2-0.3,1.8-1v-4.1
			c-0.6-0.5-1.2-0.7-1.8-0.7c-1.1,0-2,1-2,2.9C273.4,42.9,274.1,43.9,275.3,43.9L275.3,43.9z"/>
		<path class="st0" d="M281.2,34c0-0.7,0.5-1.2,1.3-1.2c0.7,0,1.3,0.5,1.3,1.2s-0.5,1.2-1.3,1.2C281.7,35.1,281.2,34.7,281.2,34z
			 M281.4,36.7h2v8.7h-2V36.7z"/>
		<path class="st0" d="M289.5,36.4c1.1,0,2,0.4,2.6,1l-1,1.3c-0.5-0.4-0.9-0.6-1.5-0.6c-1.4,0-2.4,1.2-2.4,2.9s1,2.9,2.3,2.9
			c0.7,0,1.3-0.4,1.8-0.7l0.9,1.3c-0.8,0.7-1.9,1.1-2.9,1.1c-2.4,0-4.2-1.7-4.2-4.6C285.1,38.1,287.2,36.4,289.5,36.4L289.5,36.4z"
			/>
		<path class="st0" d="M293.2,34c0-0.7,0.5-1.2,1.3-1.2c0.7,0,1.3,0.5,1.3,1.2s-0.5,1.2-1.3,1.2C293.8,35.1,293.2,34.7,293.2,34z
			 M293.5,36.7h2v8.7h-2V36.7z"/>
		<path class="st0" d="M297.7,36.7h1.7l0.1,1.2h0.1c0.8-0.8,1.7-1.4,2.9-1.4c1.9,0,2.7,1.3,2.7,3.5v5.5h-2v-5.2c0-1.4-0.4-2-1.4-2
			c-0.8,0-1.3,0.4-2,1.1v6.1h-2L297.7,36.7L297.7,36.7z"/>
		<path class="st0" d="M310.8,36.4c2.4,0,3.6,1.7,3.6,4.1c0,0.4,0,0.7-0.1,1h-5.5c0.2,1.6,1.2,2.5,2.6,2.5c0.7,0,1.4-0.2,2-0.6
			l0.7,1.3c-0.8,0.6-1.9,0.9-3,0.9c-2.4,0-4.3-1.7-4.3-4.6C306.8,38.2,308.7,36.4,310.8,36.4L310.8,36.4z M312.6,40.2
			c0-1.4-0.6-2.2-1.8-2.2c-1,0-1.9,0.8-2.1,2.2H312.6L312.6,40.2z"/>
	</g>
	<rect x="167.3" y="22.1" class="st1" width="1.6" height="34.9"/>
	<g>
		<g>
			<path class="st0" d="M151.2,46.3h6.5v1.6h-4.6v2.7h3.9v1.6h-3.9v3.2h4.7V57h-6.6L151.2,46.3L151.2,46.3z"/>
			<path class="st0" d="M136.1,46.3h2l3.3,6l1.1,2.3h0.1c-0.1-1.1-0.2-2.5-0.2-3.7v-4.7h1.8V57h-2l-3.3-6l-1.1-2.3h-0.1
				c0.1,1.1,0.2,2.4,0.2,3.6V57h-1.8V46.3L136.1,46.3z"/>
			<path class="st0" d="M127.1,46.3h1.9V57h-1.9V46.3z"/>
			<path class="st0" d="M117.7,46.1c1.3,0,2.4,0.6,3.1,1.4l-1.1,1.2c-0.5-0.5-1.1-0.9-2-0.9c-1.8,0-3,1.5-3,3.9s1.1,3.9,3,3.9
				c1,0,1.6-0.4,2.2-1.1l1.1,1.2c-0.9,1-2,1.6-3.3,1.6c-2.7,0-4.9-2-4.9-5.5C112.7,48.2,114.9,46.1,117.7,46.1z"/>
			<path class="st0" d="M104.3,46.3h1.9V57h-1.9V46.3z"/>
			<path class="st0" d="M89.6,46.3h2.9c3.3,0,5.2,1.8,5.2,5.3c0,3.6-1.9,5.4-5.1,5.4h-3V46.3L89.6,46.3z M92.4,55.5
				c2.2,0,3.4-1.2,3.4-3.9c0-2.6-1.2-3.8-3.4-3.8h-0.8v7.6h0.8V55.5z"/>
			<path class="st0" d="M76.5,46.3H83v1.6h-4.6v2.7h3.9v1.6h-3.9v3.2h4.7V57h-6.6V46.3L76.5,46.3z"/>
			<path class="st0" d="M59.9,46.3H62l1.9,5.3l0.7,2h0.1l0.7-2l1.9-5.3h2.1V57h-1.8v-4.9c0-1,0.1-2.4,0.2-3.4h-0.1l-0.9,2.4L65,56
				h-0.9l-1.9-4.9l-0.9-2.4h-0.1c0.1,1,0.2,2.4,0.2,3.4V57h-1.8L59.9,46.3L59.9,46.3z"/>
		</g>
		<g>
			<path class="st2" d="M85.7,40.8c-3.5,0-3.8-2.7-3.8-3.5c0-1,0.3-2.6,2.5-3.5c2.3-0.8,2.8-0.9,4.4-1.4V32c0-0.8,0-1-0.2-1.4
				c-0.3-0.9-1.2-1.5-2.4-1.5c-1.7,0-2.5,1.3-2.5,1.3l-0.1,0.3L83,30.3l0.1-0.2c0.3-1,1.6-2.7,4.3-2.7c1.8,0,3,0.5,3.7,1.6
				c0.5,0.9,0.6,2.1,0.6,3.3c0,1.1,0,2.3-0.1,3.3c0,0.7,0,1.3,0,1.6c0,0.9,0.1,1.6,0.9,1.6c0.2,0,0.3,0,0.4-0.1l0.2-0.2l0.4,0.5
				l-0.1,0.2c-0.7,0.8-1.4,1.4-2.5,1.4c-1,0-1.7-0.5-2-1.3C88.3,40.1,87.3,40.8,85.7,40.8z M88.8,34c-1.7,0.5-2.3,0.8-2.8,1.1
				c-0.7,0.4-1.1,1.1-1.1,2c0,0.7,0.2,1.9,1.9,1.9c0.6,0,1.3-0.1,2-0.6V34z"/>
			<g>
				<path class="st2" d="M64.3,40.8c-1.7,0-2.9-0.2-4.3-0.6l-0.2-0.1v-0.9c0-1.2,0-1.7-0.1-2.1v-0.6h0.8v0.3c0,0.6,0.2,1.2,0.6,1.6
					c0.5,0.6,1.8,1,3,1c2.5,0,3.6-0.9,3.6-2.9c0-1.7-1.1-2.4-2.5-3.4L65,32.7l-1.5-1c-2.1-1.4-3.2-2.6-3.2-4.8
					c0-1.1,0.4-4.7,5.8-4.7c2.2,0,3.9,0.3,4,0.3h0.2v0.2c0,0,0,0.7,0,1.5c0,0.6,0,1.1,0,1.7v0.4h-0.7V26c0-0.7-0.2-1.2-0.6-1.6
					c-0.5-0.5-1.7-0.8-2.9-0.8c-2.9,0-3.2,1.5-3.2,2.6c0,1.5,0.8,2,2.5,3.2l2,1.3c1.7,1.1,3.2,2.2,3.2,4.9
					C70.5,40.3,66.2,40.8,64.3,40.8L64.3,40.8z"/>
				<path class="st2" d="M77.1,40.8c-2,0-3.1-0.7-3.6-2.3c-0.2-0.6-0.2-1.9-0.2-2.6c0-2.1,0-3.7,0-5.6v-0.9h-1.7v-0.5l0.2-0.1
					c0.8-0.3,1.1-0.6,1.4-0.8c1.2-1,2.1-2.6,2.1-2.6l0.3-0.5h0.6v2.9h4.4v1.6h-4.4v6.8c0,2,0.4,3.2,2.3,3.2c0.9,0,1.6-0.3,1.6-0.4
					l0.3-0.1l0.2,0.5l-0.1,0.1C80.5,39.6,79.5,40.8,77.1,40.8L77.1,40.8z"/>
				<path class="st2" d="M94.7,40.7v-0.6h0.2c0.2,0,0.8-0.1,1.1-0.5c0.4-0.4,0.4-1.5,0.4-3.7v-3.7c0-1.6,0-2.3-0.3-2.6
					c-0.3-0.4-0.8-0.4-1.2-0.4h-0.1h-0.2v-0.7h0.3c0.1,0,0.1,0,0.2,0c0.4,0,1.3-0.1,2.3-0.2c0.8-0.1,1.2-0.4,1.4-0.5l0.1-0.1
					l0.3,0.2v1c0.7-0.5,2-1.2,3.7-1.2c2.3,0,3.8,1.1,4.3,3.1c0.1,0.5,0.2,1.7,0.2,2.3v3.8c0,2.1,0.1,2.7,0.5,3.1
					c0.2,0.2,0.6,0.3,1,0.4h0.3V41h-0.6c-0.9,0-1.7-0.1-2.6-0.1c-1,0-1.8,0-2.9,0.1h-0.3v-0.6h0.2c0.5-0.1,0.8-0.2,1.1-0.4
					c0.4-0.4,0.4-1.4,0.5-2.3c0-0.1,0-0.3,0-0.4c0-0.5,0-1.5,0-2.2c0-1,0-2-0.1-2.9c-0.2-1.7-1.1-2.4-2.7-2.4
					c-1.1,0-1.9,0.3-2.4,0.5v6.8c0,2.1,0.1,2.7,0.5,3.1c0.2,0.2,0.6,0.3,1,0.4h0.3v0.6h-0.7c-0.9,0-1.7-0.1-2.5-0.1
					c-0.9,0-1.8,0-3,0.1L94.7,40.7L94.7,40.7z"/>
				<path class="st2" d="M110.7,40.7v-0.6h0.3c0.2,0,0.8-0.1,1.1-0.5c0.4-0.4,0.4-1.5,0.4-3.7v-6.4h-1.7v-0.7l0.2-0.1
					c0.7-0.3,1.2-0.5,1.5-0.8c0-1.1,0-2.6,0.2-3.4c0.5-2.7,2.2-4,5.2-4c1.3,0,2.5,0.4,3.1,1l0.1,0.1v0.3l-1.3,1.8h-0.3l-0.1-0.2
					c-0.5-1.1-1.2-1.5-2.2-1.5c-0.4,0-1,0.1-1.3,0.5c-0.6,0.6-0.7,1.4-0.7,3V28h2.9v1.6h-2.9v7.1c0,1.7,0.1,2.5,0.3,2.9
					c0.4,0.5,1.5,0.6,1.8,0.6h0.3v0.7h-0.3c-1.4-0.1-2.5-0.1-3.2-0.1c-1,0-2,0-3.2,0.1L110.7,40.7L110.7,40.7z"/>
				<path class="st2" d="M125.5,40.9c-3.9,0-6.3-2.5-6.3-6.6c0-3.2,1.7-6.9,6.6-6.9c3.9,0,6.3,2.5,6.3,6.6
					C132.1,37.2,130.4,40.9,125.5,40.9z M125.7,28.9c-0.8,0-1.4,0.2-1.8,0.6c-1,0.9-1.6,2.4-1.6,4.7c0,0.9,0.2,5.2,3.3,5.2
					c0.8,0,1.4-0.2,1.8-0.6c1-0.9,1.6-2.4,1.6-4.7C129,33.3,128.9,28.9,125.7,28.9L125.7,28.9z"/>
				<path class="st2" d="M133.3,40.7V40h0.3c0.2,0,0.8-0.1,1.1-0.5c0.4-0.4,0.4-1.5,0.4-3.7v-3.7c0-1.6,0-2.3-0.2-2.6
					c-0.3-0.4-0.8-0.4-1.2-0.4h-0.1h-0.3v-0.8h0.3c0,0,0.1,0,0.2,0c0.4,0,1.3,0,2.3-0.2c0.6-0.1,1.2-0.3,1.4-0.4l0.1-0.1l0.2,0.1
					v1.1c0.6-0.6,1.6-1.2,3-1.2c0.9,0,1.6,0.2,2.2,0.7l0.1,0.1v0.4l-1.1,2h-0.5l-0.1-0.1c-0.3-0.5-0.9-1-2.1-1c-0.5,0-1,0.1-1.4,0.4
					v6.5c0,1.7,0.1,2.5,0.3,2.8c0.4,0.5,1.5,0.6,1.8,0.6h0.3v0.7H140c-1.4-0.1-2.5-0.1-3.2-0.1c-1,0-2,0-3.2,0.1L133.3,40.7
					L133.3,40.7z"/>
				<path class="st2" d="M153.6,40.9l-0.3-0.1v-1.1c-0.6,0.5-1.9,1.2-3.6,1.2c-3.5,0-5.8-2.5-5.8-6.3c0-1.3,0.2-2.5,0.7-3.5
					c1.1-2.3,3.3-3.7,6.1-3.7c1,0,2,0.1,2.5,0.2V25c0-1.6,0-2.5-0.3-2.8c-0.3-0.4-0.8-0.4-1.1-0.4h-0.1h-0.2l0.1-0.6h0.3
					c0.1,0,1.6-0.1,2.8-0.4c0.5-0.1,1-0.2,1.3-0.3h0.1l0.2,0.1v0.1c-0.1,1.1-0.1,3.3-0.1,5v10.5c0,1.6,0,2.5,0.2,2.9
					c0.3,0.4,0.8,0.4,1.1,0.5h0.1h0.2v0.7h-0.3c-0.3,0-1.4,0.1-2.5,0.3C154.4,40.7,153.9,40.8,153.6,40.9L153.6,40.9L153.6,40.9z
					 M150.6,29c-2.5,0-3.7,1.7-3.7,5.3c0,1.4,0.4,4.8,4.1,4.8h0.1c0.5,0,1.3-0.1,2-0.5V30C153,29.7,152.2,29,150.6,29L150.6,29z"/>
			</g>
		</g>
		<g>
			<path class="st2" d="M49.7,22.1H21.9c-0.7,1.6-2.3,8-1.1,15.3c0,0.2,0.1,0.4,0.1,0.6c1.3,7,5.1,14.7,14.6,20
				c0.1,0.1,0.2,0.1,0.3,0.2c0.1-0.1,0.2-0.1,0.3-0.2C55.8,46.9,51.1,25.3,49.7,22.1z"/>
			<path class="st3" d="M35.5,22.1v15.3H20.9c0,0.2,0.1,0.4,0.1,0.6h14.6v20c0.1,0.1,0.2,0.1,0.3,0.2c0.1-0.1,0.2-0.1,0.3-0.2V22.1
				H35.5z"/>
			<path class="st3" d="M28.2,24.9v0.4c0.3-0.2,0.7-0.4,1-0.5c-0.2,0.8-0.6,1-1,1.1v0.7c0.4-0.3,0.9-0.7,1.3-0.8
				c-0.2,1-0.7,1.4-1.3,1.5V28c0.4-0.3,1.1-0.8,1.7-0.9c-0.3,1.1-1,1.5-1.7,1.5v0.6c0.4-0.3,1.1-0.7,1.7-0.8c-0.3,1-1,1.6-1.7,1.7
				v0.5c0.4-0.3,1.1-0.7,1.7-0.8c-0.3,1.1-1,1.7-1.7,1.7v0.4c0.5-0.3,1.4-0.9,2-1c-0.4,1.2-1.2,1.8-2,1.9v0.5
				c0.3-0.2,0.9-0.5,1.2-0.5c-0.2,0.8-0.8,1.1-1.2,1.2v0.9c0.1,0,0.2,0,0.3,0c0-0.3,0.2-0.7,0.6-0.9c0,0.2-0.1,0.6-0.2,0.9
				c0.2-0.1,0.4-0.1,0.7-0.2c-0.1-0.5,0-1.1,0.6-1.7c0.1,0.4,0,1,0,1.4c0.2-0.1,0.5-0.3,0.7-0.5c-0.3-0.4-0.2-1.1,0.3-1.8
				c0.1,0.3,0.2,1,0.2,1.4c0.2-0.2,0.4-0.5,0.6-0.7c-0.4-0.4-0.4-0.9,0.1-1.7c0.1,0.3,0.3,0.9,0.3,1.3c0.2-0.2,0.3-0.4,0.5-0.7
				c-0.1-0.2,0-0.4,0.1-0.5c0.2-0.2,0.4-0.4,0.6-0.2c0.3,0.1,0.1,0.5,0,0.7S33.4,32,33.2,32c-0.1,0.3-0.4,0.6-0.5,0.8
				c0.4,0.1,0.7,0.2,1,0.5c-0.6,0.3-1,0.2-1.3-0.1c-0.2,0.3-0.5,0.6-0.7,0.8c0.4,0.1,0.7,0.2,1,0.6c-0.7,0.3-1.2,0.2-1.5-0.1
				c-0.2,0.2-0.5,0.4-0.7,0.6c0.4,0.2,0.7,0.4,0.9,0.8c-0.8,0.2-1.3,0-1.5-0.5c-0.2,0.1-0.4,0.2-0.7,0.2c0.2,0.2,0.4,0.3,0.5,0.6
				c-0.5,0-0.8-0.1-0.9-0.5c-0.1,0-0.2,0.1-0.3,0.1v1l-0.7-0.3v-0.8c-0.1,0-0.2-0.1-0.3-0.1C27.2,35.9,27,36,26.4,36
				c0.1-0.3,0.2-0.4,0.4-0.6c-0.2-0.1-0.5-0.2-0.7-0.3c-0.2,0.5-0.7,0.7-1.5,0.5c0.2-0.3,0.5-0.6,1-0.8c-0.2-0.1-0.4-0.3-0.6-0.5
				c-0.3,0.3-0.8,0.5-1.5,0.2c0.3-0.3,0.6-0.5,1-0.6c-0.2-0.2-0.4-0.5-0.6-0.7c-0.3,0.3-0.8,0.4-1.4,0.1c0.3-0.3,0.6-0.6,1-0.6
				c-0.1-0.2-0.2-0.4-0.4-0.6c-0.1,0-0.3,0-0.4-0.2c-0.2-0.2-0.3-0.6,0-0.7c0.2-0.1,0.5,0.1,0.6,0.3c0.1,0.2,0.1,0.3,0,0.5
				c0.1,0.2,0.3,0.4,0.4,0.6c-0.1-0.6,0.1-1.1,0.2-1.4c0.5,0.7,0.4,1.3,0.1,1.8c0.2,0.3,0.4,0.5,0.6,0.7c-0.1-0.4,0-1,0.1-1.4
				c0.5,0.7,0.5,1.3,0.3,1.8c0.2,0.2,0.4,0.3,0.6,0.5c-0.1-0.4-0.2-1-0.1-1.4c0.5,0.6,0.7,1.2,0.6,1.7c0.2,0.1,0.5,0.2,0.7,0.3
				c-0.1-0.2-0.2-0.6-0.2-0.9c0.4,0.3,0.5,0.6,0.5,0.9c0.1,0,0.2,0.1,0.3,0.1v-0.9c-0.4-0.1-1-0.3-1.2-1.1c0.4,0.1,0.9,0.2,1.2,0.5
				v-0.5c-0.8-0.1-1.6-0.6-2-1.8c0.7,0.1,1.4,0.5,2,0.9V32c-0.7-0.1-1.4-0.7-1.7-1.7c0.6,0.1,1.1,0.4,1.7,0.8v-0.5
				c-0.7-0.1-1.4-0.6-1.7-1.7c0.6,0.1,1.1,0.4,1.7,0.8v-0.6c-0.7,0-1.3-0.4-1.7-1.5c0.6,0.1,1.1,0.4,1.7,0.8v-0.7
				c-0.5-0.1-1.1-0.4-1.3-1.5c0.5,0.1,0.9,0.3,1.3,0.7v-0.7c-0.4-0.1-0.8-0.2-1-1.1c0.3,0.1,0.6,0.1,1,0.4v-0.4
				c-0.3-0.5-0.2-0.7-0.2-1s0.2-0.6,0.5-0.6c0.4,0,0.5,0.3,0.5,0.6C28.5,24.3,28.5,24.5,28.2,24.9"/>
			<g>
				<path class="st3" d="M43.7,33.5c0.2-2.6,0.6-3.4,1.2-3.9l0.1-0.1l-0.3-1.8h-0.2c-0.3,0-0.6,0.3-0.8,0.5v-1.3l-2-1.2v1
					c-0.2-0.1-0.3-0.3-0.3-0.3c-0.2-0.1-0.4-0.2-0.6-0.2c-0.1,0-0.2,0-0.3,0s-0.2,0.1-0.4,0c-0.9-0.2-1.6,0-2,0.6
					c-0.4,0.5-0.4,1.3-0.1,2c0.2,0.5,0.5,1,0.9,1.6c0.2,0.2,1.7,1.9,2.1,2.2c0.2,0.2,0.5,0.5,0.7,0.7v0.6l-0.4-0.3l-0.5,1.2l0.2,0.1
					c0.4,0.2,0.7,0.9,1,4.1c-0.9,0.4-2.1,1.5-2.2,2.7c0,0.5,0.2,1.3,1.6,1.8c0.3,0.1,0.5,0.2,0.8,0.3c0,0.6,0,1.3,0,2
					c-0.3,0.1-0.7,0.4-0.8,0.8c-0.1,0.4,0.1,0.7,0.6,1c0.1,0,0.1,0.1,0.2,0.1c0,0.2,0,0.4,0,0.6c-0.2,0.1-0.3,0.2-0.5,0.4
					c-0.1,0.1-0.2,0.2-0.1,0.3c0,0,0.1,0.1,0.2,0.1c0.1,0,0.2,0,0.4-0.1h0.1c0.1,0.2,0.3,0.4,0.6,0.4s0.5-0.2,0.5-0.4l0,0l0,0
					c0-0.1,0-0.2,0-0.3c0.2-0.1,0.3-0.3,0.3-0.6s-0.1-0.5-0.3-0.7c0-0.3,0-0.6,0-0.9c0.9-0.2,1.8-0.8,1.8-1.5
					c0.1-0.5-0.2-1.1-1.7-1.7c-0.1,0-0.1,0-0.2-0.1c0-1.3,0-2.4,0-3.4c1.5-0.8,2.6-1.5,2.7-2.5C46.4,36.5,45.5,35.3,43.7,33.5
					L43.7,33.5z M41.4,31.3c-2.4-2.2-2.5-3.2-2.4-3.6c0.2-0.5,0.8-0.5,0.9-0.4c0.1,0,0.1,0,0.1,0.1c0,0.2,0.1,0.4,0.6,0.5
					c0.5,0.2,0.9,0.3,1.2,0.3v3.5C41.7,31.6,41.5,31.5,41.4,31.3z M44.3,45.3c0,0.1-0.1,0.3-0.8,0.5c0-0.4,0-0.8,0-1.2
					C44,44.9,44.3,45.1,44.3,45.3z M43.3,27.3v1l-0.5-0.1L42.5,28c0-0.2-0.1-0.4-0.2-0.6v-0.7L43.3,27.3L43.3,27.3z M41.1,42
					c0-0.3,0.3-0.7,1.1-1.3c0,0.7,0.1,1.4,0.1,2.2C41.6,42.6,41.2,42.3,41.1,42z M42.8,44.3c0.1,0,0.2,0.1,0.3,0.1
					c0,0.9,0,1.9,0,2.9c-0.1,0-0.2-0.1-0.2-0.2C42.8,46.2,42.8,45.2,42.8,44.3L42.8,44.3z M42.9,49.1c0-0.3,0-0.7,0-1
					c0.1,0,0.2,0.1,0.2,0.1c0,0.3,0,0.6,0,0.9C43,49.3,42.9,49.3,42.9,49.1L42.9,49.1z M43.1,43.3c-0.1,0-0.2-0.1-0.3-0.1
					c-0.2-6.9-0.8-7.9-1.3-8.2l0.2-0.4l0.6,0.4v-1c0.1,0.1,0.2,0.1,0.2,0.2c0.2,0.2,0.5,0.4,0.7,0.6C43.1,36.7,43,39.4,43.1,43.3
					L43.1,43.3z M43.3,33.1c-0.3-0.3-0.7-0.6-1-1v-3.9c0,0,0.1,0,0.1-0.1l0.3,0.1l0.4,0.6h0.1v-0.4h0.2V29l0.4,0.1
					c0.1-0.2,0.4-0.6,0.7-0.8l0.2,1C43.9,29.9,43.5,30.7,43.3,33.1L43.3,33.1z M44.9,37.4c-0.1,0.5-0.5,0.9-1.4,1.3
					c0-1.4,0-2.6,0.1-3.6C44.4,36,45,36.7,44.9,37.4L44.9,37.4z"/>
				<path class="st2" d="M40.8,27.4L40.8,27.4c-0.2,0-0.2,0-0.3,0.1c0,0.1,0,0.2,0.1,0.3h0.1c0.1,0,0.1,0,0.2-0.1
					C40.9,27.6,40.9,27.5,40.8,27.4L40.8,27.4z"/>
				<path class="st2" d="M41.2,26.7c0,0-0.1-0.1-0.2-0.1h-0.1v0.1c0,0.1,0,0.1,0.1,0.2c0,0,0.1,0.1,0.2,0.1h0.1v-0.1
					C41.3,26.8,41.2,26.8,41.2,26.7L41.2,26.7z"/>
			</g>
			<path class="st3" d="M32,43.8v-3.3h-5.8v5.8H28v3.3h5.8v-5.8H32z M30.3,41.3h1v2.4h-1V41.3z M31.2,46.3V47h-0.7v-0.7H31.2z
				 M27,41.3h2.4v1H27C27,42.2,27,41.3,27,41.3z M28,45.6h-1v-2.4h1C28,43.2,28,45.6,28,45.6z M28.7,43.1h0.7v0.7h-0.7V43.1z
				 M28.8,44.6h2.4v1h-2.4V44.6z M29.8,48.8h-1v-2.4h1V48.8z M32.9,48.7h-2.4v-1h2.4V48.7z M32.9,47.1H32v-2.4h0.9V47.1z"/>
		</g>
	</g>
</g>
</svg>
