<?xml version="1.0" encoding="utf-8"?>
<!-- Generator: Adobe Illustrator 27.6.1, SVG Export Plug-In . SVG Version: 6.00 Build 0)  -->
<svg version="1.1" id="Stanford_School_of_Medicine_White__x28_horizontal_x29_"
	 xmlns="http://www.w3.org/2000/svg" xmlns:xlink="http://www.w3.org/1999/xlink" x="0px" y="0px" viewBox="0 0 334.6 78.3"
	 style="enable-background:new 0 0 334.6 78.3;" xml:space="preserve">
<style type="text/css">
	.st0{fill:#FFFFFF;}
</style>
<g>
	<g id="_x3C_Group_x3E__2_">
		<path class="st0" d="M179,42.4c0.8,0.8,1.9,1.3,3,1.3c1.3,0,2-0.6,2-1.5c0-1-0.8-1.3-1.8-1.7l-1.6-0.7c-1.1-0.5-2.3-1.4-2.3-3.1
			c0-1.8,1.6-3.3,3.9-3.3c1.4,0,2.7,0.6,3.6,1.5l-1.1,1.3c-0.8-0.6-1.5-1-2.5-1c-1.1,0-1.8,0.5-1.8,1.4s0.9,1.2,1.8,1.6l1.6,0.7
			c1.4,0.6,2.3,1.5,2.3,3.1c0,1.9-1.6,3.4-4.2,3.4c-1.6,0-3.1-0.6-4.2-1.7L179,42.4z"/>
		<path class="st0" d="M191.7,36.4c1.1,0,2,0.4,2.6,1l-1,1.3c-0.5-0.4-0.9-0.6-1.5-0.6c-1.4,0-2.4,1.2-2.4,2.9s1,2.9,2.3,2.9
			c0.7,0,1.3-0.3,1.8-0.8l0.9,1.3c-0.8,0.7-1.9,1.1-2.9,1.1c-2.4,0-4.2-1.7-4.2-4.6C187.3,38.1,189.4,36.4,191.7,36.4z"/>
		<path class="st0" d="M195.6,32.8h2V36l-0.1,1.7c0.7-0.7,1.6-1.3,2.8-1.3c1.9,0,2.7,1.3,2.7,3.5v5.5h-2v-5.2c0-1.4-0.4-2-1.4-2
			c-0.8,0-1.3,0.4-2,1.1v6.1h-2V32.8L195.6,32.8z"/>
		<path class="st0" d="M208.8,36.4c2.2,0,4.1,1.7,4.1,4.6c0,2.9-2,4.6-4.1,4.6c-2.2,0-4.1-1.7-4.1-4.6
			C204.7,38.1,206.6,36.4,208.8,36.4z M208.8,43.9c1.3,0,2.1-1.2,2.1-2.9c0-1.8-0.8-2.9-2.1-2.9s-2,1.2-2,2.9S207.5,43.9,208.8,43.9
			z"/>
		<path class="st0" d="M218.3,36.4c2.2,0,4.1,1.7,4.1,4.6c0,2.9-2,4.6-4.1,4.6c-2.2,0-4.1-1.7-4.1-4.6
			C214.1,38.1,216.1,36.4,218.3,36.4z M218.3,43.9c1.3,0,2.1-1.2,2.1-2.9c0-1.8-0.8-2.9-2.1-2.9s-2,1.2-2,2.9
			C216.2,42.7,217,43.9,218.3,43.9z"/>
		<path class="st0" d="M224.1,32.8h2v10.4c0,0.5,0.2,0.7,0.4,0.7c0.1,0,0.2,0,0.3,0l0.3,1.5c-0.2,0.1-0.6,0.2-1.1,0.2
			c-1.5,0-2-0.9-2-2.5V32.8H224.1z"/>
		<path class="st0" d="M235.1,36.4c2.2,0,4.1,1.7,4.1,4.6c0,2.9-2,4.6-4.1,4.6c-2.2,0-4.1-1.7-4.1-4.6C231,38.1,233,36.4,235.1,36.4
			z M235.1,43.9c1.3,0,2.1-1.2,2.1-2.9c0-1.8-0.8-2.9-2.1-2.9s-2,1.2-2,2.9S233.9,43.9,235.1,43.9z"/>
		<path class="st0" d="M245.3,34.4c-0.3-0.1-0.7-0.2-1-0.2c-0.7,0-1.1,0.5-1.1,1.5v0.9h1.7v1.6h-1.7v7.1h-2v-7.1H240v-1.5l1.2-0.1
			v-0.9c0-1.8,0.8-3.1,2.9-3.1c0.6,0,1.2,0.1,1.6,0.3L245.3,34.4z"/>
		<path class="st0" d="M250,33.7h2.3l2.1,5.7l0.8,2.2h0.1l0.8-2.2l2.1-5.7h2.3v11.6h-1.9V40c0-1.1,0.2-2.6,0.3-3.7h-0.1l-0.9,2.6
			l-2,5.3h-1l-2-5.3l-0.9-2.6h-0.1c0.1,1.1,0.3,2.6,0.3,3.7v5.3H250V33.7L250,33.7z"/>
		<path class="st0" d="M266.1,36.4c2.4,0,3.6,1.7,3.6,4.1c0,0.4,0,0.8-0.1,1h-5.5c0.2,1.6,1.2,2.5,2.6,2.5c0.8,0,1.4-0.2,2-0.6
			l0.7,1.3c-0.8,0.5-1.9,0.9-3,0.9c-2.4,0-4.3-1.7-4.3-4.6C262.1,38.1,264.1,36.4,266.1,36.4z M268,40.2c0-1.4-0.6-2.2-1.8-2.2
			c-1,0-1.9,0.8-2.1,2.2H268z"/>
		<path class="st0" d="M274.8,36.4c1,0,1.6,0.4,2.3,1L277,36v-3.2h2v12.5h-1.7l-0.1-0.9h-0.1c-0.6,0.6-1.5,1.2-2.5,1.2
			c-2.2,0-3.6-1.7-3.6-4.6C271.1,38.1,272.9,36.4,274.8,36.4z M275.2,43.8c0.7,0,1.2-0.3,1.8-1v-4.1c-0.6-0.5-1.2-0.7-1.8-0.7
			c-1.1,0-2,1-2,2.9C273.2,42.8,274,43.8,275.2,43.8z"/>
		<path class="st0" d="M281.1,33.9c0-0.7,0.5-1.2,1.3-1.2s1.3,0.5,1.3,1.2s-0.5,1.2-1.3,1.2S281.1,34.6,281.1,33.9z M281.3,36.6h2
			v8.7h-2V36.6z"/>
		<path class="st0" d="M289.4,36.4c1.1,0,2,0.4,2.6,1l-1,1.3c-0.5-0.4-0.9-0.6-1.5-0.6c-1.4,0-2.4,1.2-2.4,2.9s1,2.9,2.3,2.9
			c0.7,0,1.3-0.3,1.8-0.8l0.9,1.3c-0.8,0.7-1.9,1.1-2.9,1.1c-2.4,0-4.2-1.7-4.2-4.6C285,38.1,287.1,36.4,289.4,36.4z"/>
		<path class="st0" d="M293.1,33.9c0-0.7,0.5-1.2,1.3-1.2s1.3,0.5,1.3,1.2s-0.5,1.2-1.3,1.2S293.1,34.6,293.1,33.9z M293.4,36.6h2
			v8.7h-2V36.6z"/>
		<path class="st0" d="M297.6,36.6h1.7l0.1,1.2h0.1c0.8-0.8,1.7-1.4,2.9-1.4c1.9,0,2.7,1.3,2.7,3.5v5.5h-2v-5.2c0-1.4-0.4-2-1.4-2
			c-0.8,0-1.3,0.4-2,1.1v6.1h-2v-8.8C297.7,36.6,297.6,36.6,297.6,36.6z"/>
		<path class="st0" d="M310.7,36.4c2.4,0,3.6,1.7,3.6,4.1c0,0.4,0,0.8-0.1,1h-5.5c0.2,1.6,1.2,2.5,2.6,2.5c0.8,0,1.4-0.2,2-0.6
			l0.7,1.3c-0.8,0.5-1.9,0.9-3,0.9c-2.4,0-4.3-1.7-4.3-4.6C306.6,38.1,308.6,36.4,310.7,36.4z M312.5,40.2c0-1.4-0.6-2.2-1.8-2.2
			c-1,0-1.9,0.8-2.1,2.2H312.5z"/>
	</g>
	<rect x="167.2" y="22" class="st0" width="1.6" height="34.9"/>
	<g>
		<g>
			<path class="st0" d="M151.1,46.2h6.5v1.6H153v2.7h3.9v1.6H153v3.2h4.7V57h-6.6L151.1,46.2L151.1,46.2z"/>
			<path class="st0" d="M135.9,46.2h1.9l3.4,6l1.1,2.3h0.1c-0.1-1.1-0.2-2.5-0.2-3.7v-4.7h1.8V57h-2l-3.4-6l-1.1-2.3h-0.1
				c0.1,1.1,0.2,2.4,0.2,3.6V57h-1.8V46.2H135.9z"/>
			<path class="st0" d="M126.9,46.2h1.9V57h-1.9V46.2z"/>
			<path class="st0" d="M117.5,46c1.3,0,2.4,0.6,3.1,1.4l-1.1,1.2c-0.5-0.5-1.2-0.9-2-0.9c-1.8,0-3,1.5-3,3.9s1.2,3.9,2.9,3.9
				c0.9,0,1.6-0.4,2.2-1.1l1.1,1.2c-0.9,1-2,1.6-3.3,1.6c-2.7,0-4.9-2-4.9-5.5C112.6,48.1,114.8,46,117.5,46z"/>
			<path class="st0" d="M104.2,46.2h1.9V57h-1.9V46.2z"/>
			<path class="st0" d="M89.5,46.2h2.9c3.3,0,5.2,1.8,5.2,5.3c0,3.6-1.9,5.4-5.1,5.4h-3V46.2z M92.3,55.4c2.2,0,3.4-1.2,3.4-3.9
				c0-2.6-1.2-3.8-3.4-3.8h-0.8v7.7H92.3L92.3,55.4z"/>
			<path class="st0" d="M76.3,46.2h6.5v1.6h-4.6v2.7h3.9v1.6h-3.9v3.2H83V57h-6.6L76.3,46.2L76.3,46.2z"/>
			<path class="st0" d="M59.8,46.2h2.1l1.9,5.3l0.7,2h0.1l0.7-2l1.9-5.3h2.1V57h-1.8v-4.9c0-1,0.2-2.4,0.2-3.4h-0.1l-0.9,2.5
				L64.9,56H64l-1.8-4.9l-0.8-2.5h-0.1c0.1,1,0.2,2.4,0.2,3.4v5h-1.8L59.8,46.2L59.8,46.2z"/>
		</g>
		<g>
			<g>
				<path class="st0" d="M85.6,40.8c-3.5,0-3.8-2.7-3.8-3.5c0-1,0.3-2.7,2.5-3.5c2.3-0.8,2.8-0.9,4.4-1.4V32c0-0.8,0-1-0.2-1.4
					c-0.3-0.9-1.2-1.5-2.4-1.5c-1.7,0-2.5,1.3-2.5,1.3l-0.1,0.3l-0.7-0.4l0.1-0.2c0.3-1,1.6-2.7,4.3-2.7c1.8,0,3,0.5,3.7,1.6
					c0.5,0.9,0.6,2.1,0.6,3.3c0,1.1,0,2.3-0.1,3.3c0,0.7,0,1.3,0,1.6c0,0.9,0.1,1.6,0.9,1.6c0.2,0,0.3,0,0.4-0.1l0.2-0.2l0.4,0.5
					l-0.1,0.2c-0.7,0.8-1.4,1.4-2.6,1.4c-1,0-1.7-0.5-2-1.3C88.2,40,87.2,40.8,85.6,40.8z M88.6,34c-1.7,0.5-2.3,0.8-2.8,1.1
					c-0.7,0.4-1.1,1.1-1.1,2c0,0.7,0.2,1.9,1.9,1.9c0.6,0,1.3-0.1,2-0.6C88.6,38.3,88.6,34,88.6,34z"/>
			</g>
			<g>
				<g>
					<path class="st0" d="M64.2,40.7c-1.7,0-3-0.2-4.2-0.6L59.8,40v-0.9c0-1.2,0-1.7,0-2.1v-0.7h0.8v0.3c0,0.6,0.2,1.2,0.6,1.5
						c0.5,0.6,1.8,1,3,1c2.5,0,3.6-0.9,3.6-2.9c0-1.7-1.1-2.4-2.5-3.4l-0.2-0.2l-1.5-1c-2.1-1.4-3.2-2.6-3.2-4.8
						c0-1.1,0.4-4.7,5.8-4.7c2.2,0,3.9,0.3,4,0.3h0.2v0.2c0,0,0,0.7,0,1.5c0,0.6,0,1.1,0,1.7v0.4h-0.7V26c-0.1-0.7-0.2-1.2-0.6-1.6
						c-0.5-0.5-1.7-0.8-2.9-0.8c-2.9,0-3.2,1.5-3.2,2.6c0,1.5,0.8,2,2.5,3.2l1.9,1.3c1.7,1.1,3.2,2.2,3.2,4.9
						C70.4,40.2,66.1,40.7,64.2,40.7z"/>
				</g>
				<g>
					<path class="st0" d="M77,40.8c-2,0-3.1-0.7-3.6-2.3c-0.2-0.6-0.2-1.9-0.2-2.6c0-2.1,0-3.7,0-5.6v-0.9h-1.7v-0.5l0.2-0.1
						c0.8-0.3,1.1-0.5,1.4-0.8c1.2-1,2.1-2.6,2.1-2.6l0.3-0.5h0.6v2.9h4.4v1.6h-4.4v6.8c0,2,0.4,3.2,2.3,3.2c0.9,0,1.6-0.3,1.6-0.3
						l0.3-0.1l0.2,0.5l-0.1,0.1C80.3,39.5,79.3,40.8,77,40.8z"/>
				</g>
				<g>
					<path class="st0" d="M94.5,40.6V40h0.2c0.2,0,0.8-0.1,1.1-0.5c0.4-0.4,0.4-1.5,0.4-3.7V32c0-1.6,0-2.3-0.2-2.6
						C95.7,29,95.2,29,94.8,29h-0.1h-0.2v-0.7h0.3c0.1,0,0.1,0,0.2,0c0.4,0,1.3,0,2.3-0.2c0.8-0.1,1.2-0.4,1.4-0.5l0.2-0.1l0.2,0.1
						v1c0.7-0.5,2-1.2,3.7-1.2c2.3,0,3.8,1.1,4.3,3.1c0.1,0.5,0.2,1.7,0.2,2.3v3.8c0,2.1,0.1,2.7,0.5,3.1c0.2,0.2,0.6,0.3,1,0.4h0.2
						v0.6h-0.6c-0.9,0-1.7-0.1-2.6-0.1s-1.8,0-2.9,0.1h-0.3V40h0.2c0.5-0.1,0.8-0.2,1.1-0.4c0.4-0.4,0.4-1.4,0.5-2.3
						c0-0.1,0-0.3,0-0.5c0-0.5,0-1.5,0-2.2c0-1,0-2-0.1-3c-0.2-1.7-1.1-2.4-2.7-2.4c-1.2,0-1.9,0.3-2.4,0.5v6.8
						c0,2.1,0.1,2.7,0.5,3.1c0.2,0.2,0.6,0.3,1,0.4h0.2v0.6h-0.7c-0.9,0-1.7-0.1-2.5-0.1c-0.9,0-1.8,0-3,0.1H94.5z"/>
				</g>
				<g>
					<path class="st0" d="M110.6,40.6V40h0.2c0.2,0,0.8-0.1,1.1-0.5c0.4-0.5,0.4-1.5,0.4-3.7v-6.4h-1.7v-0.7l0.2-0.1
						c0.7-0.3,1.2-0.5,1.5-0.8c0-1.1,0-2.6,0.2-3.4c0.5-2.7,2.2-4,5.2-4c1.2,0,2.4,0.4,3.2,1l0.1,0.1v0.3l-1.3,1.8h-0.3l-0.1-0.2
						c-0.5-1.1-1.2-1.5-2.2-1.5c-0.4,0-1,0.1-1.3,0.5c-0.6,0.6-0.7,1.4-0.7,3v2.5h2.9v1.6h-2.9v7.2c0,1.7,0.1,2.5,0.3,2.9
						c0.4,0.5,1.5,0.6,1.8,0.6h0.3v0.7h-0.3c-1.4-0.1-2.5-0.1-3.2-0.1c-1,0-2,0-3.2,0.1L110.6,40.6z"/>
				</g>
				<g>
					<path class="st0" d="M125.4,40.8c-3.9,0-6.3-2.5-6.3-6.5c0-3.2,1.7-6.9,6.6-6.9c3.9,0,6.3,2.5,6.3,6.5
						C132,37.1,130.3,40.8,125.4,40.8z M125.6,28.9c-0.8,0-1.4,0.2-1.8,0.6c-1,0.9-1.6,2.5-1.6,4.7c0,0.9,0.2,5.2,3.3,5.2
						c0.8,0,1.4-0.2,1.8-0.6c1-0.9,1.6-2.5,1.6-4.7C128.9,33.2,128.8,28.9,125.6,28.9z"/>
				</g>
				<g>
					<path class="st0" d="M133.2,40.6V40h0.2c0.2,0,0.8-0.1,1.1-0.5c0.4-0.4,0.4-1.5,0.4-3.7V32c0-1.6,0-2.3-0.2-2.6
						c-0.3-0.4-0.8-0.4-1.2-0.4h-0.1h-0.2v-0.8h0.3c0.1,0,0.1,0,0.2,0c0.4,0,1.3,0,2.3-0.2c0.6-0.1,1.2-0.3,1.4-0.4l0.1-0.1l0.2,0.1
						v1.1c0.6-0.6,1.6-1.2,3-1.2c0.9,0,1.6,0.2,2.2,0.7l0.1,0.1v0.4l-1.1,2h-0.5l-0.1-0.1c-0.3-0.5-0.9-1-2.1-1
						c-0.5,0-1,0.1-1.4,0.4v6.5c0,1.7,0.1,2.5,0.3,2.8c0.4,0.5,1.4,0.6,1.8,0.6h0.3v0.7h-0.3c-1.4-0.1-2.5-0.1-3.2-0.1
						c-1,0-2,0-3.2,0.1H133.2z"/>
				</g>
				<g>
					<path class="st0" d="M153.5,40.8l-0.3-0.1v-1.1c-0.6,0.5-1.9,1.2-3.6,1.2c-3.5,0-5.8-2.5-5.8-6.2c0-1.3,0.2-2.5,0.7-3.5
						c1.1-2.3,3.3-3.7,6.1-3.7c1,0,2,0.1,2.5,0.2v-2.7c0-1.6,0-2.5-0.2-2.8c-0.3-0.4-0.8-0.4-1.1-0.4h-0.1h-0.2l0.1-0.6h0.3
						c0.1,0,1.6-0.1,2.8-0.4c0.5-0.1,1-0.2,1.3-0.3h0.1l0.2,0.1v0.1c-0.1,1.1-0.1,3.3-0.1,5v10.5c0,1.6,0,2.5,0.2,2.8
						c0.3,0.4,0.8,0.5,1.1,0.5h0.1h0.2v0.7h-0.3c-0.3,0-1.4,0.1-2.5,0.3c-0.6,0.1-1.1,0.2-1.3,0.3L153.5,40.8z M150.5,29
						c-2.5,0-3.7,1.7-3.7,5.2c0,1.4,0.4,4.8,4.1,4.8h0.1c0.4,0,1.3-0.1,2-0.5v-8.6C152.9,29.6,152.1,29,150.5,29z"/>
				</g>
			</g>
		</g>
		<g>
			<path class="st0" d="M35.4,37.3V22H21.8c-0.7,1.6-2.2,8-1.1,15.2L35.4,37.3L35.4,37.3z M23,32c-0.1,0-0.2,0-0.4-0.2
				c-0.1-0.2-0.3-0.6,0-0.8c0.2-0.1,0.5,0.1,0.6,0.3c0.1,0.2,0.1,0.3,0,0.5c0.1,0.2,0.3,0.4,0.4,0.6c-0.1-0.6,0.1-1.1,0.2-1.4
				c0.5,0.7,0.4,1.3,0.1,1.8c0.2,0.3,0.4,0.5,0.6,0.7c-0.1-0.4,0-1,0.1-1.4c0.5,0.7,0.5,1.3,0.3,1.8c0.2,0.2,0.4,0.3,0.6,0.5
				c-0.1-0.4-0.2-1-0.1-1.4c0.5,0.5,0.7,1.2,0.6,1.7c0.2,0.1,0.5,0.2,0.7,0.2c-0.1-0.2-0.2-0.6-0.2-0.9c0.4,0.3,0.5,0.6,0.5,0.9
				c0.1,0,0.2,0.1,0.3,0.1v-0.9c-0.4-0.1-1-0.3-1.2-1.1c0.4,0.1,0.9,0.2,1.2,0.5V33c-0.8-0.1-1.6-0.7-2-1.8c0.7,0.1,1.4,0.5,2,0.9
				v-0.4c-0.7,0-1.4-0.7-1.7-1.6c0.6,0.1,1.1,0.4,1.7,0.8v-0.5c-0.7-0.1-1.4-0.6-1.7-1.7c0.6,0.1,1.1,0.4,1.7,0.8v-0.6
				c-0.7,0-1.3-0.4-1.7-1.5c0.6,0.1,1.1,0.4,1.7,0.8v-0.7c-0.5-0.1-1-0.4-1.3-1.5c0.5,0.1,0.9,0.3,1.3,0.7V26
				c-0.4-0.1-0.8-0.2-1-1.1c0.3,0.1,0.6,0.1,1,0.4v-0.4c-0.3-0.5-0.2-0.7-0.2-1s0.2-0.6,0.5-0.6c0.4,0,0.5,0.3,0.5,0.6
				c0,0.4,0.1,0.6-0.2,1v0.4c0.3-0.2,0.7-0.4,1-0.5c-0.2,0.8-0.6,1-1,1.1v0.7c0.4-0.3,0.9-0.7,1.3-0.8c-0.2,1-0.7,1.4-1.3,1.5V28
				c0.5-0.3,1.1-0.8,1.7-0.9c-0.3,1.1-1,1.5-1.7,1.5v0.6c0.5-0.3,1.1-0.7,1.7-0.8c-0.3,1-1,1.6-1.7,1.7v0.5c0.5-0.3,1.1-0.7,1.7-0.8
				c-0.3,1.1-1,1.6-1.7,1.7v0.4c0.5-0.3,1.4-0.9,2-1c-0.4,1.2-1.2,1.8-2,1.9v0.5c0.3-0.2,0.9-0.5,1.2-0.5c-0.2,0.8-0.8,1.1-1.2,1.2
				v0.9c0.1,0,0.2,0,0.3,0c0-0.3,0.2-0.7,0.6-0.9c0,0.2-0.1,0.6-0.2,0.8c0.2,0,0.5-0.1,0.7-0.2c-0.1-0.5,0-1.1,0.6-1.7
				c0.1,0.4,0,1,0,1.3c0.2-0.1,0.5-0.3,0.7-0.5c-0.3-0.4-0.2-1.1,0.3-1.8c0.1,0.3,0.2,1,0.2,1.4c0.2-0.2,0.4-0.5,0.6-0.7
				c-0.4-0.4-0.4-0.9,0.1-1.7c0.1,0.3,0.3,0.9,0.3,1.2c0.2-0.2,0.3-0.4,0.5-0.7c-0.1-0.2,0-0.4,0.1-0.5c0.2-0.2,0.4-0.4,0.6-0.2
				c0.3,0.1,0.2,0.5,0,0.7c-0.1,0.2-0.2,0.3-0.4,0.3c-0.2,0.3-0.4,0.6-0.5,0.8c0.4,0.1,0.7,0.2,1,0.5c-0.6,0.3-1,0.2-1.3-0.1
				c-0.2,0.3-0.5,0.6-0.7,0.8c0.4,0.1,0.7,0.2,1,0.6c-0.7,0.3-1.2,0.2-1.5-0.1c-0.2,0.2-0.5,0.4-0.7,0.6c0.4,0.2,0.7,0.4,1,0.8
				c-0.8,0.2-1.3,0-1.5-0.5c-0.2,0.1-0.5,0.2-0.7,0.2c0.2,0.2,0.4,0.3,0.5,0.6c-0.5,0-0.8-0.1-0.9-0.5c-0.1,0-0.2,0.1-0.3,0.1v1
				l-0.7-0.3v-0.8c-0.1,0-0.2-0.1-0.3-0.1c-0.1,0.3-0.3,0.4-0.9,0.4c0.1-0.2,0.2-0.4,0.4-0.6c-0.2-0.1-0.5-0.2-0.7-0.3
				c-0.2,0.5-0.7,0.7-1.5,0.5c0.2-0.3,0.5-0.6,1-0.8c-0.2-0.1-0.4-0.3-0.6-0.5c-0.3,0.3-0.8,0.5-1.5,0.2c0.3-0.3,0.6-0.5,1-0.6
				c-0.2-0.2-0.4-0.5-0.6-0.8c-0.3,0.3-0.8,0.4-1.4,0.1c0.3-0.3,0.6-0.6,1-0.6C23.3,32.5,23.1,32.3,23,32z"/>
			<g>
				<path class="st0" d="M42.4,28l0.3,0.1l0.5,0.1v-1l-1.1-0.6v0.7C42.3,27.5,42.4,27.8,42.4,28z"/>
				<path class="st0" d="M44.2,45.3c0-0.2-0.3-0.4-0.8-0.7c0,0.4,0,0.8,0,1.2C44,45.6,44.2,45.4,44.2,45.3z"/>
				<path class="st0" d="M41,42c0,0.3,0.5,0.6,1.2,0.9c0-0.8-0.1-1.6-0.1-2.2C41.3,41.2,41,41.6,41,42z"/>
				<path class="st0" d="M42.9,44.4c-0.1,0-0.2-0.1-0.3-0.1c0,0.9,0,1.8,0.1,2.9c0.1,0.1,0.2,0.1,0.2,0.2
					C43,46.3,42.9,45.3,42.9,44.4z"/>
				<path class="st0" d="M40.5,27.9c-0.5-0.1-0.5-0.4-0.6-0.5c0-0.1,0-0.1-0.1-0.1s-0.7,0-0.9,0.5c-0.2,0.4,0,1.4,2.3,3.6
					c0.2,0.1,0.3,0.3,0.4,0.4v-3.5C41.4,28.2,41,28.1,40.5,27.9z"/>
				<path class="st0" d="M40.5,27.7L40.5,27.7c0.2,0,0.2,0,0.3-0.1c0-0.1,0-0.2-0.1-0.3h-0.1c-0.1,0-0.1,0-0.2,0.1
					C40.3,27.5,40.4,27.6,40.5,27.7z"/>
				<path class="st0" d="M41,27L41,27l0.1-0.1c0-0.1,0-0.1-0.1-0.2c0,0-0.1-0.1-0.2-0.1h-0.1v0.1c0,0.1,0,0.1,0.1,0.2
					C40.9,27,40.9,27,41,27z"/>
				<path class="st0" d="M43.4,38.7c0.8-0.4,1.3-0.8,1.4-1.3c0.1-0.7-0.5-1.4-1.3-2.2C43.5,36.1,43.4,37.3,43.4,38.7z"/>
				<path class="st0" d="M49.6,22H36v35.8C55.7,46.9,51,25.3,49.6,22z M46.1,37.5c-0.1,1-1.2,1.7-2.7,2.5c0,1,0,2.2,0,3.4
					c0.1,0,0.1,0,0.2,0.1c1.5,0.6,1.7,1.3,1.7,1.8c-0.1,0.8-1,1.3-1.8,1.5c0,0.3,0,0.6,0,0.9c0.2,0.2,0.3,0.5,0.3,0.7
					s-0.1,0.4-0.3,0.5c0,0.1,0,0.2,0,0.3l0,0l0,0c-0.1,0.3-0.3,0.4-0.5,0.4s-0.5-0.2-0.5-0.4h-0.1c-0.2,0.1-0.3,0.1-0.4,0.1
					c-0.1,0-0.1-0.1-0.2-0.1c0-0.1,0-0.2,0.1-0.3c0.2-0.2,0.3-0.3,0.5-0.4c0-0.2,0-0.4,0-0.6c-0.1,0-0.1,0-0.2-0.1
					c-0.5-0.3-0.7-0.7-0.7-1c0.1-0.4,0.5-0.7,0.8-0.8c0-0.7,0-1.4,0-2c-0.3-0.1-0.6-0.2-0.8-0.3c-1.3-0.5-1.6-1.3-1.6-1.8
					c0-1.2,1.2-2.3,2.2-2.7c-0.3-3.3-0.6-3.9-1-4.1L40.8,35l0.5-1.2l0.4,0.3v-0.6c-0.2-0.2-0.5-0.5-0.7-0.7c-0.3-0.3-1.9-2-2.1-2.2
					C38.5,30,38.1,29.4,38,29c-0.3-0.8-0.2-1.5,0.2-2s1.1-0.7,2-0.6c0.2,0.1,0.3,0.1,0.4,0c0.1,0,0.2,0,0.3,0c0.2,0,0.4,0.1,0.5,0.2
					c0.1,0,0.2,0.1,0.3,0.3v-1l2,1.1v1.3c0.2-0.2,0.5-0.5,0.8-0.5h0.2l0.3,1.8l-0.1,0.1c-0.6,0.5-1,1.2-1.2,3.9
					C45.4,35.3,46.3,36.5,46.1,37.5z"/>
				<path class="st0" d="M44.5,29.3l-0.2-1c-0.3,0.2-0.5,0.6-0.7,0.8L43.2,29v-0.6H43v0.4h-0.1l-0.4-0.6l-0.3-0.1c0,0-0.1,0-0.1,0.1
					v3.9c0.4,0.3,0.7,0.7,1,1C43.4,30.6,43.8,29.9,44.5,29.3z"/>
				<path class="st0" d="M42.7,48.1c0,0.3,0,0.6,0,1c0.1,0.1,0.2,0.1,0.2,0c0-0.3,0-0.6,0-0.9C42.9,48.2,42.8,48.1,42.7,48.1z"/>
				<path class="st0" d="M42.2,33.9v1l-0.6-0.4l-0.2,0.4c0.5,0.4,1,1.4,1.2,8.2c0.1,0,0.2,0.1,0.3,0.1c0-3.8,0-6.6,0.1-8.5
					c-0.2-0.2-0.4-0.4-0.7-0.6C42.3,34,42.2,34,42.2,33.9z"/>
			</g>
			<g>
				<rect x="26.9" y="41.2" class="st0" width="2.4" height="1"/>
				<rect x="28.7" y="44.6" class="st0" width="2.4" height="1"/>
				<rect x="26.9" y="43.1" class="st0" width="1" height="2.4"/>
				<rect x="30.4" y="46.3" class="st0" width="0.7" height="0.7"/>
				<rect x="30.1" y="41.2" class="st0" width="1" height="2.4"/>
				<rect x="28.6" y="43" class="st0" width="0.7" height="0.7"/>
				<rect x="28.7" y="46.3" class="st0" width="1" height="2.4"/>
				<rect x="31.9" y="44.6" class="st0" width="0.9" height="2.4"/>
				<path class="st0" d="M20.9,37.9c1.3,7,5.1,14.7,14.6,20v-20H20.9z M33.7,49.6h-5.8v-3.3h-1.8v-5.8h5.8v3.3h1.8V49.6z"/>
				<rect x="30.4" y="47.7" class="st0" width="2.4" height="1"/>
			</g>
		</g>
	</g>
</g>
</svg>
